<?xml version="1.0" encoding="utf-8"?>
<!-- Generator: Adobe Illustrator 16.0.0, SVG Export Plug-In . SVG Version: 6.00 Build 0)  -->
<!DOCTYPE svg PUBLIC "-//W3C//DTD SVG 1.1//EN" "http://www.w3.org/Graphics/SVG/1.1/DTD/svg11.dtd">
<svg version="1.1" id="Layer_1" xmlns="http://www.w3.org/2000/svg" xmlns:xlink="http://www.w3.org/1999/xlink" x="0px" y="0px"
	 width="512px" height="512px" viewBox="0 0 512 512" enable-background="new 0 0 512 512" xml:space="preserve">
<path d="M288.031,320c0,17.688-14.313,32-32,32c-17.672,0-32-14.313-32-32s14.328-32,32-32C273.719,288,288.031,302.313,288.031,320
	z M182.391,258.406l24.531,20.563c24.469-29.219,73.828-29.219,98.266,0.031l24.563-20.5c-18.344-21.938-45.203-34.5-73.719-34.5
	C227.531,224,200.688,236.531,182.391,258.406z M137.438,212.563l23.719,21.5C185.375,207.313,219.953,192,256.031,192
	c36.063,0,70.625,15.313,94.844,42l23.688-21.5c-30.281-33.375-73.469-52.5-118.531-52.5
	C210.938,160,167.719,179.188,137.438,212.563z"/>
</svg>
